# xmcd
#
# Track frame offsets:
#	150
#	15857
#	34372
#	53695
#	63942
#	77512
#	92475
#	113710
#	130235
#	144830
#	160635
#	174862
#	196065
#	213262
#	225625
#
# Disc length: 3224
#
# Revision: 1
# Processed by: cddbd v1.5.2PL0 Copyright (c) Steve Scherf et al.
# Submitted via: kJams Pro (development) 1.0patch44.13
#
DISCID=a90c960f
DTITLE=Various Artist - MM 6086
DYEAR=1990
DGENRE=Karaoke
TTITLE0=Emmylou Harris - Heartbreak Hill
TTITLE1=Kathy Mattea - A Few Good Things Remain
TTITLE2=Juice Newton - The Sweetest Thing (I've Ever Known)
TTITLE3=Lorette Lynn - Don't Come Home A Drinking
TTITLE4=K.D. Lang - I'm Down To My Last Cigarette
TTITLE5=Emmylou Harris - Two More Bottles Of Wine
TTITLE6=K.T. Oslin - 80's Ladies
TTITLE7=Carlene Carter - I Love You 'Cause I Want To
TTITLE8=Holly Dunn - Love Someone Like Me
TTITLE9=Lorrie Morgan - Out Of Your Shoes
TTITLE10=Juice Newton - Cheap Love
TTITLE11=Kathy Mattea - Goin' Gone
TTITLE12=Emmylou Harris - Heaven Only Knows
TTITLE13=Patsy Cline - Crazy Arms
TTITLE14=Lorrie Morgan - Watch Me
EXTD=
EXTT0=
EXTT1=
EXTT2=
EXTT3=
EXTT4=
EXTT5=
EXTT6=
EXTT7=
EXTT8=
EXTT9=
EXTT10=
EXTT11=
EXTT12=
EXTT13=
EXTT14=
PLAYORDER=
